<svg xmlns="http://www.w3.org/2000/svg" xmlns:xlink="http://www.w3.org/1999/xlink" width="500" zoomAndPan="magnify" viewBox="0 0 375 374.999991" height="500" preserveAspectRatio="xMidYMid meet" version="1.0"><defs><g/></defs><g fill="#ffde59" fill-opacity="1"><g transform="translate(0.0000045, 234.964917)"><g><path d="M 106.578125 1.46875 L 19.875 -111.375 L 19.875 -30.734375 C 19.875 -23.742188 20.363281 -18.34375 21.34375 -14.53125 C 22.332031 -10.726562 23.773438 -7.9375 25.671875 -6.15625 C 27.578125 -4.382812 29.878906 -3.128906 32.578125 -2.390625 L 32.578125 0 L 9.578125 0 L 9.578125 -2.390625 C 12.398438 -3.253906 14.332031 -5.097656 15.375 -7.921875 C 16.414062 -10.742188 16.9375 -15.894531 16.9375 -23.375 L 16.9375 -105.484375 C 16.9375 -113.085938 16.257812 -118.269531 14.90625 -121.03125 C 13.5625 -123.789062 11.046875 -125.601562 7.359375 -126.46875 L 7.359375 -128.859375 L 25.40625 -128.859375 L 105.84375 -24.671875 L 105.84375 -98.109375 C 105.84375 -105.109375 105.351562 -110.539062 104.375 -114.40625 C 103.394531 -118.269531 101.984375 -121.0625 100.140625 -122.78125 C 98.296875 -124.5 95.960938 -125.726562 93.140625 -126.46875 L 93.140625 -128.859375 L 116.34375 -128.859375 L 116.34375 -126.46875 C 113.519531 -125.601562 111.582031 -123.789062 110.53125 -121.03125 C 109.488281 -118.269531 108.96875 -113.085938 108.96875 -105.484375 L 108.96875 1.46875 Z M 106.578125 1.46875 "/></g></g></g><g fill="#ffde59" fill-opacity="1"><g transform="translate(123.689872, 234.964917)"><g><path d="M 9.390625 0 L 9.390625 -2.390625 C 12.210938 -3.253906 14.144531 -5.097656 15.1875 -7.921875 C 16.226562 -10.742188 16.75 -15.894531 16.75 -23.375 L 16.75 -105.484375 C 16.75 -113.085938 16.226562 -118.269531 15.1875 -121.03125 C 14.144531 -123.789062 12.210938 -125.601562 9.390625 -126.46875 L 9.390625 -128.859375 L 39.203125 -128.859375 L 39.203125 -126.46875 C 36.378906 -125.601562 34.445312 -123.789062 33.40625 -121.03125 C 32.363281 -118.269531 31.84375 -113.085938 31.84375 -105.484375 L 31.84375 -58.71875 L 80.078125 -108.046875 C 85.835938 -114.066406 89.175781 -118.640625 90.09375 -121.765625 C 91.019531 -124.898438 89.707031 -126.710938 86.15625 -127.203125 L 86.15625 -128.859375 L 111.734375 -128.859375 L 111.734375 -126.46875 C 108.785156 -125.601562 105.347656 -124.34375 101.421875 -122.6875 C 97.492188 -121.03125 92.894531 -117.503906 87.625 -112.109375 L 48.40625 -71.96875 L 52.640625 -72.15625 C 59.515625 -72.644531 65.128906 -72.304688 69.484375 -71.140625 C 73.847656 -69.972656 77.46875 -67.851562 80.34375 -64.78125 C 83.226562 -61.71875 85.925781 -57.546875 88.4375 -52.265625 C 90.957031 -46.992188 93.753906 -40.429688 96.828125 -32.578125 C 100.015625 -24.722656 102.648438 -18.617188 104.734375 -14.265625 C 106.828125 -9.910156 108.757812 -6.875 110.53125 -5.15625 C 112.3125 -3.4375 114.1875 -2.578125 116.15625 -2.578125 C 116.769531 -2.578125 117.320312 -2.578125 117.8125 -2.578125 C 118.300781 -2.578125 118.789062 -2.640625 119.28125 -2.765625 L 119.28125 -0.375 C 117.6875 0.125 115.9375 0.460938 114.03125 0.640625 C 112.132812 0.828125 110.203125 0.921875 108.234375 0.921875 C 103.816406 0.921875 100.257812 -0.0234375 97.5625 -1.921875 C 94.863281 -3.828125 92.4375 -6.957031 90.28125 -11.3125 C 88.132812 -15.675781 85.59375 -21.414062 82.65625 -28.53125 C 79.582031 -36.019531 76.972656 -42.367188 74.828125 -47.578125 C 72.679688 -52.796875 70.503906 -57 68.296875 -60.1875 C 66.085938 -63.382812 63.507812 -65.6875 60.5625 -67.09375 C 57.613281 -68.507812 53.8125 -69.15625 49.15625 -69.03125 L 45.46875 -69.03125 L 31.84375 -55.046875 L 31.84375 -23.375 C 31.84375 -15.894531 32.363281 -10.742188 33.40625 -7.921875 C 34.445312 -5.097656 36.378906 -3.253906 39.203125 -2.390625 L 39.203125 0 Z M 9.390625 0 "/></g></g></g><g fill="#ffde59" fill-opacity="1"><g transform="translate(241.489683, 234.964917)"><g><path d="M 9.390625 0 L 9.390625 -2.390625 C 12.210938 -3.253906 14.144531 -5.097656 15.1875 -7.921875 C 16.226562 -10.742188 16.75 -15.894531 16.75 -23.375 L 16.75 -105.484375 C 16.75 -113.085938 16.226562 -118.269531 15.1875 -121.03125 C 14.144531 -123.789062 12.210938 -125.601562 9.390625 -126.46875 L 9.390625 -128.859375 L 53.375 -128.859375 C 66.019531 -128.859375 76.820312 -127.046875 85.78125 -123.421875 C 94.738281 -119.804688 102.039062 -114.988281 107.6875 -108.96875 C 113.332031 -102.957031 117.472656 -96.300781 120.109375 -89 C 122.742188 -81.695312 124.0625 -74.304688 124.0625 -66.828125 C 124.1875 -53.929688 121.519531 -42.453125 116.0625 -32.390625 C 110.601562 -22.328125 102.867188 -14.410156 92.859375 -8.640625 C 82.859375 -2.878906 71.109375 0 57.609375 0 Z M 31.84375 -16.203125 C 31.84375 -11.898438 32.578125 -8.582031 34.046875 -6.25 C 35.523438 -3.925781 38.78125 -2.765625 43.8125 -2.765625 L 57.25 -2.765625 C 73.320312 -2.765625 85.679688 -7.394531 94.328125 -16.65625 C 102.984375 -25.925781 107.3125 -40.191406 107.3125 -59.453125 C 107.3125 -71.722656 104.914062 -82.890625 100.125 -92.953125 C 95.34375 -103.015625 88.289062 -111.050781 78.96875 -117.0625 C 69.644531 -123.082031 58.109375 -126.09375 44.359375 -126.09375 L 31.84375 -126.09375 Z M 31.84375 -16.203125 "/></g></g></g></svg>